#!OML:ASF E:/inclinewalkrobotboard/Project1/Captureday1/Session1/subject1.ASF
:FULLY-SPECIFIED
:DEGREES
238
root 0 0 0 -0.5130244326195941 -3.015335475684425 -0.19851628830587942
lowerback 11.214746746517234 0.6344923167741193 0.40008682026103537
upperback -1.9355012963871288 0.9276036797445055 0.499703976772124
thorax -8.367126416124645 0.4319525417512909 0.11200617891765713
lowerneck -11.427297811766369 -0.6362477175119982 1.3408124064173523
upperneck 18.8605850007909 -0.26038343773604056 -3.889647988861591
head 7.82606459011617 -0.318895205472461 -1.5663211586611525
rclavicle -5.490546754911126E-16 -6.190855179981866E-16
rhumerus -0.5802558759583647 0.8728759990280395 -60.24528935279731
rradius 53.28868750676821
rwrist 17.427723215373085
rhand -27.22344752905884 -23.345412406888805
rfingers 7.125019999999924
rthumb -0.8180429865281442 -53.48336821803622
lclavicle -4.89804127441938E-16 -6.928191964593343E-16
lhumerus -1.2953140824269198 -6.925107521410593 60.48848565583753
lradius 52.637421833180724
lwrist -11.131981568924397
lhand -37.269697438894966 -31.2186406151802
lfingers 7.12501999999992
lthumb -10.372332500142331 -1.6648862402061155
rfemur -21.408257649932814 -0.3561477340302961 19.52453714908243
rtibia 50.646072246574754
rfoot -22.813138531176627 -13.874824716121637
rtoes -12.27334171222519
lfemur -23.106472854678124 1.5421682631056457 -18.14448335608197
ltibia 50.09920312229751
lfoot -25.926741874761298 -3.652260037675169
ltoes -16.700537203921943
239
root 0 0 0 -0.5132330802455095 -3.0152802639254563 -0.19874243836383076
lowerback 11.214665824327996 0.6344653613897074 0.4001414408932808
upperback -1.9352305816935949 0.9275852230235518 0.4998258933085928
thorax -8.366782499025097 0.4319443436623882 0.11211046994865742
lowerneck -11.42787576986278 -0.6364942861389624 1.3404575692406688
upperneck 18.860627823773182 -0.2607535157599945 -3.8891743860579315
head 7.826177256187585 -0.31905550256684895 -1.5661447009342608
rclavicle -5.490839576498849E-16 -6.190520018911703E-16
rhumerus -0.5826544512758556 0.8712940390220894 -60.24672535083281
rradius 53.28648322815023
rwrist 17.42661976247951
rhand -27.222646608378337 -23.341587210497828
rfingers 7.125019999999924
rthumb -0.8172930677574985 -53.47957908978172
lclavicle -4.898291084586463E-16 -6.92798503765879E-16
lhumerus -1.2977820166312615 -6.92451768212341 60.49022504534001
lradius 52.63551349779498
lwrist -11.130692244471142
lhand -37.26887052538821 -31.21431669076511
lfingers 7.12501999999992
lthumb -10.371541741216458 -1.6605275826026897
rfemur -21.407860670287267 -0.355902067935447 19.524864711303426
rtibia 50.64553816871812
rfoot -22.812407956720683 -13.874471203559159
rtoes -12.272571945616718
lfemur -23.106424350245835 1.5421567084581649 -18.144485689184208
ltibia 50.099145870244826
lfoot -25.926669038792404 -3.652258559327284
ltoes -16.700488934376022
240
root 0 0 0 -0.5134116443401697 -3.015234163878125 -0.1989370696516224
lowerback 11.214596601421391 0.6344430137097667 0.4001890900120908
upperback -1.9349990748231518 0.9275702325813525 0.49993002217411686
thorax -8.366488040910394 0.43193749826837147 0.11219892486701072
lowerneck -11.42837046536423 -0.6367059663059289 1.3401538463510003
upperneck 18.86066460861013 -0.2610705952123802 -3.8887687151649133
head 7.826273775682865 -0.3191926487219201 -1.5659935868558996
rclavicle -5.491097301978741E-16 -6.190218948223837E-16
rhumerus -0.5848038026506917 0.8698768369962675 -60.24801266191856
rradius 53.28450777797784
rwrist 17.425630110523706
rhand -27.22192866834018 -23.338158702503783
rfingers 7.125019999999924
rthumb -0.8166206443724926 -53.47618185879159
lclavicle -4.898536679089316E-16 -6.927792305385418E-16
lhumerus -1.300135665936505 -6.923954485612765 60.491882661784075
lradius 52.63369320492344
lwrist -11.129463321404703
lhand -37.26808225138567 -31.21019412397306
lfingers 7.12501999999992
lthumb -10.370787836773808 -1.6563722751142045
rfemur -21.407488142566116 -0.35567308608655956 19.52517093508536
rtibia 50.64504167994884
rfoot -22.81172612591353 -13.874140893743228
rtoes -12.271853419861866
lfemur -23.106363841898926 1.5421418487189635 -18.14448901889061
ltibia 50.09907036508141
lfoot -25.92657758745463 -3.652255591999494
ltoes -16.700427681795222
241
root 0 0 0 -0.5135629207544323 -3.0151958628883317 -0.19910261662602224
lowerback 11.214537975216926 0.6344245598089328 0.40022999701691375
upperback -1.934803085249108 0.9275580453087221 0.5000180761874367
thorax -8.366238486325658 0.4319318127830862 0.11227334164972463
lowerneck -11.428789582201944 -0.6368857162136765 1.3398965377309564
upperneck 18.860695836315607 -0.2613394352683138 -3.8884247935428853
head 7.8263555956631325 -0.31930880174023574 -1.5658655140420326
rclavicle -5.491322651014834E-16 -6.189951337901677E-16
rhumerus -0.5867120112972426 0.8686188903424874 -60.249155872197086
rradius 53.28275387695474
rwrist 17.424750923618546
rhand -27.22129112458059 -23.3351143402583
rfingers 7.125019999999924
rthumb -0.8160233831940804 -53.47316458842085
lclavicle -4.898768649486421E-16 -6.927616878403243E-16
lhumerus -1.3023159001101607 -6.92343235619202 60.4934173752177
lradius 52.63200678942081
lwrist -11.128325388447566
lhand -37.26735227152654 -31.206375983033162
lfingers 7.12501999999992
lthumb -10.370089623620018 -1.6525240074539163
rfemur -21.407158031591322 -0.35547114345150943 19.52544157659509
rtibia 50.64460475828243
rfoot -22.811124057841702 -13.873849000141401
rtoes -12.271218915151842
lfemur -23.10628618993874 1.5421225755900578 -18.144494133066367
ltibia 50.098971792176854
lfoot -25.92646128491249 -3.6522511832505207
ltoes -16.700349776550695
242
root 0 0 0 -0.5136901330702449 -3.015164062621771 -0.19924212011328957
lowerback 11.214488681788989 0.6344093078872959 0.40026462496576687
upperback -1.9346383770131106 0.9275480556703253 0.5000920051412927
thorax -8.366028565064159 0.4319270957017245 0.11233564234359944
lowerneck -11.429142007478745 -0.6370370794788577 1.3396801980181243
upperneck 18.86072210104537 -0.2615656019861716 -3.888135433572392
head 7.826424410655362 -0.31940644758787884 -1.5657578021108332
rclavicle -5.491518774531122E-16 -6.189715613454522E-16
rhumerus -0.588392943781761 0.8675109157252692 -60.25016308616358
rradius 53.281208888106235
rwrist 17.42397612737528
rhand -27.22072943647445 -23.33243228499323
rfingers 7.125019999999924
rthumb -0.815497102575832 -53.47050603168124
lclavicle -4.898980364305448E-16 -6.927460488363616E-16
lhumerus -1.3042839366791519 -6.922960797905397 60.494802287534725
lradius 52.630484336906086
lwrist -11.12729846331805
lhand -37.26669345503553 -31.202929798564995
lfingers 7.12501999999992
lthumb -10.369459441688033 -1.6490506960664248
rfemur -21.40688100598554 -0.35530224747084294 19.525668283246382
rtibia 50.64424002606767
rfoot -22.81061983176005 -13.873604427110667
rtoes -12.27068754892571
lfemur -23.10618975748477 1.5420986091339262 -18.144501390945997
ltibia 50.098849338865136
lfoot -25.926318603763182 -3.652245508258911
ltoes -16.700254540041506
243
root 0 0 0 -0.5137966730139127 -3.015137542099387 -0.19935893656447778
lowerback 11.214447396190176 0.6343966187077743 0.40029359424947547
upperback -1.934500506458125 0.9275397335624587 0.5001538432880205
thorax -8.365852719840074 0.43192316630886507 0.11238774748358932
lowerneck -11.429437110124478 -0.6371638739214542 1.3394990804820326
upperneck 18.860744054264345 -0.2617550046318773 -3.8878930326975345
head 7.826482020984943 -0.3194882004583437 -1.5656676136761614
rclavicle -5.491689030300144E-16 -6.189509501741836E-16
rhumerus -0.5898645897179904 0.8665409449668395 -60.251044929472755
rradius 53.279856348699305
rwrist 17.423297674598217
rhand -27.220237662991508 -23.33008405375726
rfingers 7.125019999999924
rthumb -0.8150362928355079 -53.46817826062317
lclavicle -4.899167732627528E-16 -6.927323680044719E-16
lhumerus -1.306019182699517 -6.922544910463337 60.49602321255652
lradius 52.629141850295575
lwrist -11.126393120085464
lhand -37.26611260824648 -31.199891341571153
lfingers 7.12501999999992
lthumb -10.368903825008022 -1.6459882890538928
rfemur -21.406661610593208 -0.35516877685808046 19.525847631985716
rtibia 50.64395231541526
rfoot -22.810220713331613 -13.873410801548108
rtoes -12.27026701958442
lfemur -23.106075525516935 1.5420702812468043 -18.144510819397077
ltibia 50.098705111468334
lfoot -25.92615148736059 -3.6522388218588198
ltoes -16.700143478077116
244
root 0 0 0 -0.5138858911507708 -3.0151152012131086 -0.19945649583891345
lowerback 11.214412813101632 0.6343859256598396 0.40031761446017855
upperback -1.9343850938197278 0.9275326333557463 0.5002055872929155
thorax -8.36570545176009 0.431919861294738 0.1124314799540096
lowerneck -11.429684158420015 -0.6372699361688768 1.339347495807772
upperneck 18.860762358464672 -0.26191351919278194 -3.887690051220396
head 7.826530217702497 -0.3195566416587728 -1.5655921333702287
rclavicle -5.491836794363725E-16 -6.189330267870684E-16
rhumerus -0.5911474935331977 0.865695356828752 -60.251813605245616
rradius 53.278677416921006
rwrist 17.42270627226322
rhand -27.21980898843052 -23.328037025445425
rfingers 7.125019999999924
rthumb -0.8146346095598838 -53.466149156832856
lclavicle -4.899328860341913E-16 -6.927206035203806E-16
lhumerus -1.3075164073729795 -6.922186068688005 60.497076691019586
lradius 52.627983435489284
lwrist -11.125611962411423
lhand -37.2656114194867 -31.197269567771286
lfingers 7.12501999999992
lthumb -10.368424405817345 -1.643345744766247
rfemur -21.406499533798964 -0.3550702506969503 19.525980095604407
rtibia 50.643740336006616
rfoot -22.80992543481667 -13.873267581154524
rtoes -12.269956013133896
lfemur -23.105946274004406 1.5420383371068134 -18.144522205100195
ltibia 50.09854315114024
lfoot -25.9259642167804 -3.652231418062093
ltoes -16.700019547390916
